# xmcd
#
# Track frame offsets: 
#        150
#        12353
#        23642
#        38055
#        47009
#        59591
#        72815
#        85413
#        98495
#        109562
#        121400
#        134377
#        146643
#        157485
#        167058
#        175651
#        186467
#        197704
#        207116
#        218442
#
# Disc length: 3111 seconds
#
# Revision: 0
# Processed by: cddbd v1.5.2PL0 Copyright (c) Steve Scherf et al.
# Submitted via: ExactAudioCopyFreeDBPlugin 1.0
#
DISCID=1a0c2514
DTITLE=The Platters - The Ultimate Collection [CD 3 of 3]
DYEAR=2014
DGENRE=Vocal
TTITLE0=Smoke Gets In Your Eyes [1958]
TTITLE1=(You've Got) The Magic Touch [1956]
TTITLE2=Harbor Lights [1959]
TTITLE3=Roses of Picardy [1954]
TTITLE4=I Can't Get Started [1958]
TTITLE5=Love in Bloom [1959]
TTITLE6=Lazy River [1959]
TTITLE7=Enchanted [1958]
TTITLE8=In the Still of the Night [1956]
TTITLE9=My Dream [1957]
TTITLE10=September in the Rain [1956]
TTITLE11=Where [1958]
TTITLE12=Sleepy Time Gal [1959]
TTITLE13=I'll Take You Home Again Kathleen [1959]
TTITLE14=On a Slow Boat to China [1959]
TTITLE15=He's Mine [1957]
TTITLE16=Song for the Lonely [1961]
TTITLE17=More Than You Know [1961]
TTITLE18=Don't Blame Me [1959]
TTITLE19=Thanks for the Memory [1959]
EXTD=
EXTT0=
EXTT1=
EXTT2=
EXTT3=
EXTT4=
EXTT5=
EXTT6=
EXTT7=
EXTT8=
EXTT9=
EXTT10=
EXTT11=
EXTT12=
EXTT13=
EXTT14=
EXTT15=
EXTT16=
EXTT17=
EXTT18=
EXTT19=
PLAYORDER=
